<?xml version="1.0" encoding="UTF-8"?>
<svg width="170" height="300" xmlns="http://www.w3.org/2000/svg" xmlns:svg="http://www.w3.org/2000/svg">
 <!-- Generator: Sketch 49 (51002) - http://www.bohemiancoding.com/sketch -->
 <title>Rectangle 22</title>
 <desc>Created with Sketch.</desc>
 <g>
  <title>Layer 1</title>
  <g id="Designs" fill="none" fill-rule="evenodd">
   <polygon id="Rectangle-22" fill="#ecf3f9" points="2.94902991e-16 0 170 0 2.94902991e-16 300"/>
  </g>
 </g>
 <g>
  <title>Layer 2</title>
 </g>
 <g>
  <title>Layer 3</title>
  <g opacity="0.15" stroke="null" transform="matrix(0.42352941632270813,0,0,0.44873932003974915,0,41.68911415670527) " id="svg_1">
   <svg fill="#7e848a" width="180" height="180" y="-95.82401" x="9.44444" id="svg_2" viewBox="0 0 512 512" xmlns="http://www.w3.org/2000/svg">
    <path fill="#7e848a" stroke="null" id="svg_3" d="m0,432l0,-128c0,-137.018 63.772,-236.324 193.827,-271.172c15.225,-4.08 30.173,7.437 30.173,23.199l0,33.895c0,10.057 -6.228,19.133 -15.687,22.55c-65.997,23.84 -104.313,69.474 -104.313,143.528l72,0c26.51,0 48,21.49 48,48l0,128c0,26.51 -21.49,48 -48,48l-128,0c-26.51,0 -48,-21.49 -48,-48zm336,48l128,0c26.51,0 48,-21.49 48,-48l0,-128c0,-26.51 -21.49,-48 -48,-48l-72,0c0,-74.054 38.316,-119.688 104.313,-143.528c9.459,-3.417 15.687,-12.493 15.687,-22.55l0,-33.895c0,-15.762 -14.948,-27.279 -30.173,-23.199c-130.055,34.848 -193.827,134.154 -193.827,271.172l0,128c0,26.51 21.49,48 48,48z"/>
   </svg>
  </g>
 </g>
</svg>