<?xml version="1.0" encoding="UTF-8"?>
<svg width="170" height="300" xmlns="http://www.w3.org/2000/svg" xmlns:svg="http://www.w3.org/2000/svg">
 <!-- Generator: Sketch 49 (51002) - http://www.bohemiancoding.com/sketch -->
 <title>Rectangle 22 Copy</title>
 <desc>Created with Sketch.</desc>
 <g>
  <title>Layer 1</title>
  <g fill-rule="evenodd" fill="none" id="Designs">
   <polygon points="170,300 0,300 170,0 " fill="#ecf3f9" id="Rectangle-22-Copy"/>
  </g>
 </g>
 <g>
  <title>Layer 2</title>
  <g id="svg_5" transform="matrix(0.48185454299457575,0,0,0.44015068003640323,60.75523404767521,119.17266834691415) " stroke="null" opacity="0.15">
   <svg viewBox="0 0 512 512" id="svg_1" x="41.25282" y="167.37175" xmlns="http://www.w3.org/2000/svg">
    <path d="m512,80l0,128c0,137.018 -63.772,236.324 -193.827,271.172c-15.225,4.08 -30.173,-7.437 -30.173,-23.199l0,-33.895c0,-10.057 6.228,-19.133 15.687,-22.55c65.997,-23.84 104.313,-69.474 104.313,-143.528l-72,0c-26.51,0 -48,-21.49 -48,-48l0,-128c0,-26.51 21.49,-48 48,-48l128,0c26.51,0 48,21.49 48,48zm-336,-48l-128,0c-26.51,0 -48,21.49 -48,48l0,128c0,26.51 21.49,48 48,48l72,0c0,74.054 -38.316,119.688 -104.313,143.528c-9.459,3.417 -15.687,12.493 -15.687,22.55l0,33.895c0,15.762 14.948,27.279 30.173,23.199c130.055,-34.848 193.827,-134.154 193.827,-271.172l0,-128c0,-26.51 -21.49,-48 -48,-48z" id="svg_2" stroke="null" fill="#7e848a"/>
   </svg>
  </g>
 </g>
</svg>