<svg id="Layer_1" xmlns="http://www.w3.org/2000/svg" viewBox="0 0 16 15.8"><style>.st0{fill:#EEE3C6;}</style><path class="st0" d="M11.6 15.8c-1.5 0-4.4-.5-7.7-3.7-2-1.9-3.3-4-3.7-6.2-.3-1.6-.1-2.7 0-3.1 0-.3 0-.5.2-.8.3-.5.9-1.3 1.3-1.6.6-.5 1.2-.5 1.6.2L5.8 4c.3.5.3 1.1-.2 1.5l-1.3 1h-.1c-.2.8.5 2 2.2 3.6 1.3 1.3 2.2 1.6 2.7 1.6h.3l.1-.2.9-1.3c.2-.3.5-.4.8-.4l.6.2 3.5 2.4c.3.2.5.5.6.8 0 .3-.1.6-.3.9-.3.4-1.1 1.1-1.6 1.4-.2.1-.5.2-.7.2-.2-.1-.8.1-1.7.1M2.4.5L2 .8c-.4.2-1 1-1.2 1.4l-.1.5v.2c-.1.4-1 4.4 3.6 8.8 3.2 3.1 6 3.6 7.4 3.6.9 0 1.4-.2 1.6-.2h.2l.5-.1c.4-.2 1.2-.9 1.4-1.2l.2-.5-.3-.4-3.5-2.4-.7.1-1.1 1.2-.1.1v.1l-.1.1c-.1 0-.3.2-.7.2-.6 0-1.7-.3-3.1-1.7-2-2-2.7-3.3-2.3-4.3l.1-.1h.1L4 6l1.3-1 .1-.7L2.8.9C2.6.5 2.4.5 2.4.5z"/></svg>