<svg version="1.2" xmlns="http://www.w3.org/2000/svg" xmlns:xlink="http://www.w3.org/1999/xlink" overflow="visible" preserveAspectRatio="none" viewBox="0 0 112 22" width="112" height="22"><g transform="translate(0, 0)"><defs><path id="path-16073264548822519" d="M541.9076923076923 309 C541.0461538461539 309 653.9076923076923 309 653.9076923076923 309 C653.9076923076923 309 649.5999999999999 320 649.5999999999999 320 C649.5999999999999 320 653.9076923076923 331 653.9076923076923 331 C653.9076923076923 331 541.9076923076923 331 541.9076923076923 331 C541.9076923076923 331 542.7692307692307 309 541.9076923076923 309 Z" vector-effect="non-scaling-stroke"/></defs><g transform="translate(-541.9027848180098, -309)"><path d="M541.9076923076923 309 C541.0461538461539 309 653.9076923076923 309 653.9076923076923 309 C653.9076923076923 309 649.5999999999999 320 649.5999999999999 320 C649.5999999999999 320 653.9076923076923 331 653.9076923076923 331 C653.9076923076923 331 541.9076923076923 331 541.9076923076923 331 C541.9076923076923 331 542.7692307692307 309 541.9076923076923 309 Z" style="stroke: rgb(140, 140, 140); stroke-width: 0; stroke-linecap: butt; stroke-linejoin: miter; fill: rgb(255, 0, 0);" vector-effect="non-scaling-stroke"/></g></g></svg>